<?xml version="1.0" encoding="UTF-8" ?>
<!DOCTYPE svg PUBLIC "-//W3C//DTD SVG 1.1//EN" "http://www.w3.org/Graphics/SVG/1.1/DTD/svg11.dtd">
<svg width="855pt" height="763pt" viewBox="0 0 855 763" version="1.1" xmlns="http://www.w3.org/2000/svg">
<g id="#fdfbf6ff">
<path fill="#fdfbf6" opacity="1.00" d=" M 119.67 60.76 C 135.15 53.56 151.99 49.61 168.94 48.03 C 180.28 47.97 191.71 47.51 202.87 49.82 C 213.08 51.51 223.06 54.43 232.66 58.26 C 235.87 59.77 239.17 61.09 242.30 62.78 C 247.93 65.56 253.28 68.89 258.55 72.30 C 278.36 86.00 295.05 104.32 306.21 125.73 C 308.00 129.31 309.74 132.93 311.27 136.63 C 320.71 159.40 324.16 184.66 320.92 209.07 C 317.43 236.20 305.77 262.13 288.07 282.95 C 278.94 293.20 268.93 302.78 257.35 310.23 C 253.58 312.95 249.39 314.98 245.35 317.25 C 243.40 318.34 241.37 319.27 239.37 320.25 C 223.89 327.47 207.13 332.27 190.04 333.24 C 182.45 334.29 174.64 334.41 167.05 333.26 C 149.53 332.07 132.30 327.23 116.44 319.69 C 115.54 319.19 114.63 318.69 113.72 318.21 C 101.29 311.96 90.16 303.44 79.80 294.22 C 69.24 284.14 60.53 272.26 53.27 259.63 C 51.39 255.90 49.35 252.22 47.76 248.35 C 41.65 234.95 37.79 220.55 36.03 205.94 C 35.33 196.84 34.20 187.64 35.74 178.55 C 36.63 162.93 40.97 147.64 47.25 133.34 C 60.28 104.68 82.68 80.33 110.33 65.22 C 113.39 63.64 116.46 62.05 119.67 60.76 M 175.18 77.07 C 168.81 98.67 162.53 120.30 156.17 141.90 C 156.08 142.46 155.92 143.59 155.83 144.15 C 151.73 141.59 147.70 138.89 143.65 136.24 C 130.93 128.03 118.08 120.00 105.44 111.66 C 104.07 110.12 102.12 109.78 100.15 109.95 C 99.41 110.60 98.66 111.25 97.91 111.88 C 97.57 115.28 100.07 117.76 101.63 120.48 C 110.42 135.08 119.09 149.75 127.56 164.53 C 128.17 165.60 128.93 166.62 129.18 167.86 C 124.39 168.28 119.90 170.21 115.29 171.45 C 96.86 177.06 78.24 182.08 59.96 188.16 C 58.15 188.84 59.31 191.29 58.99 192.74 C 60.43 193.43 61.87 194.12 63.31 194.81 C 82.46 200.81 101.74 206.38 120.90 212.35 C 122.18 212.81 123.52 213.07 124.88 213.22 C 129.24 205.22 134.51 197.76 138.79 189.71 C 142.91 183.51 146.55 176.98 151.00 171.00 C 148.44 176.00 144.83 180.36 142.14 185.28 C 138.03 191.23 135.01 197.85 130.85 203.77 C 128.37 207.94 126.18 212.29 123.24 216.18 C 115.18 229.90 107.60 243.89 99.88 257.81 C 96.79 263.77 92.85 269.57 92.13 276.42 C 93.16 279.08 96.73 279.87 98.98 278.31 C 104.01 274.79 109.23 271.55 114.42 268.28 C 128.63 259.28 142.72 250.10 156.82 240.94 C 156.87 243.09 157.47 245.15 158.16 247.17 C 163.28 264.56 168.47 281.93 173.46 299.36 C 174.65 302.80 175.09 306.96 178.57 308.95 C 179.79 307.62 181.59 306.65 182.10 304.81 C 188.20 283.52 194.35 262.23 200.63 240.99 C 200.76 240.19 201.03 238.60 201.16 237.80 C 203.89 238.78 206.01 240.96 208.60 242.26 C 223.57 252.00 238.68 261.56 253.70 271.24 C 254.99 271.99 256.43 272.55 257.92 272.80 C 260.87 272.35 260.36 268.71 259.29 266.77 C 256.28 261.72 253.37 256.61 250.24 251.64 C 243.93 240.63 237.56 229.64 231.28 218.61 C 230.26 216.80 229.27 214.97 228.42 213.07 C 231.09 213.32 233.55 212.20 236.07 211.51 C 256.11 205.81 276.06 199.70 296.07 193.92 C 297.30 192.58 298.18 191.00 298.15 189.14 C 275.90 181.44 253.08 175.51 230.63 168.46 C 229.62 168.13 228.58 167.94 227.52 167.90 C 238.60 147.19 250.89 127.08 260.86 105.78 C 261.81 103.20 260.59 100.66 258.77 98.85 C 255.57 98.93 252.80 100.70 250.01 102.05 C 245.11 104.82 240.18 107.55 235.51 110.70 C 223.26 118.59 210.95 126.42 199.00 134.77 C 194.04 116.11 187.97 97.65 182.85 78.99 C 182.38 76.74 180.96 74.63 178.82 73.68 C 176.90 73.62 175.68 75.44 175.18 77.07 Z" />
<path fill="#fdfbf6" opacity="1.00" d=" M 580.04 95.99 C 593.15 87.90 608.76 84.03 624.12 84.61 C 640.00 85.46 655.75 90.73 668.49 100.34 C 681.07 109.41 690.43 122.58 695.86 137.03 C 701.82 153.39 701.94 171.54 697.39 188.26 C 693.55 202.74 684.80 216.00 672.50 224.67 C 669.38 227.43 664.96 229.09 663.16 233.07 C 661.87 241.89 663.78 251.76 658.81 259.69 C 656.86 262.71 653.01 261.84 649.98 261.97 C 646.70 261.91 642.81 262.05 640.24 259.70 C 639.22 256.63 639.78 253.10 637.84 250.28 C 632.54 252.01 632.79 258.87 628.84 261.86 C 624.58 261.93 620.30 262.04 616.04 261.85 C 611.23 259.51 610.31 253.30 605.91 250.37 C 603.21 252.40 604.00 255.97 603.94 258.89 C 600.06 262.91 593.92 261.93 588.88 261.82 C 586.33 261.73 584.22 259.91 583.35 257.59 C 579.00 249.06 583.14 238.80 578.72 230.34 C 575.74 227.15 571.42 225.58 568.05 222.81 C 559.79 216.37 552.75 208.13 548.66 198.40 C 540.01 177.64 539.52 153.36 548.45 132.60 C 554.93 117.59 565.97 104.41 580.04 95.99 M 581.86 151.65 C 572.96 154.10 566.07 161.98 564.15 170.92 C 563.59 176.28 563.73 181.80 566.18 186.72 C 568.36 190.79 571.24 194.48 575.27 196.86 C 580.22 199.85 586.19 201.28 591.93 200.26 C 600.03 199.34 607.15 193.83 610.79 186.63 C 615.27 177.14 613.39 164.72 605.48 157.57 C 599.49 151.30 590.05 149.49 581.86 151.65 M 646.31 152.20 C 636.60 155.81 629.84 165.63 629.95 175.98 C 630.35 182.44 632.77 189.02 637.68 193.43 C 644.77 200.92 656.85 202.55 665.94 197.91 C 671.21 195.41 675.24 190.82 677.82 185.66 C 679.52 180.70 680.94 175.30 679.39 170.11 C 677.87 162.74 672.60 156.29 665.81 153.13 C 659.84 150.06 652.59 150.26 646.31 152.20 M 608.71 211.59 C 605.41 214.86 607.42 219.82 608.12 223.76 C 608.79 224.51 609.46 225.27 610.14 226.03 C 613.51 226.40 616.69 225.17 619.68 223.76 C 620.50 223.10 621.46 222.84 622.57 222.99 C 625.47 225.38 629.24 226.33 632.96 226.07 C 636.81 223.02 636.09 217.71 635.94 213.38 C 631.59 207.28 626.69 201.54 621.66 195.98 C 616.76 200.41 612.92 206.35 608.71 211.59 Z" />
<path fill="#fdfbf6" opacity="1.00" d=" M 331.85 105.91 C 377.61 106.13 423.38 105.93 469.15 106.01 C 454.68 142.25 453.42 183.90 467.24 220.55 C 468.00 222.21 468.63 223.93 469.24 225.67 C 470.52 228.21 471.31 231.00 472.86 233.41 C 472.89 233.75 472.95 234.42 472.98 234.76 L 473.06 236.58 C 462.39 216.26 457.06 193.42 455.93 170.57 C 439.02 187.11 422.39 203.94 405.58 220.59 C 401.70 224.18 397.99 227.94 394.44 231.86 C 433.67 269.84 471.81 308.95 510.77 347.22 C 516.89 352.87 518.10 363.73 511.71 369.63 C 490.45 391.07 468.99 412.31 447.75 433.77 C 445.51 436.18 442.72 438.15 440.96 440.98 C 441.60 442.43 442.54 443.80 442.70 445.43 C 430.03 431.32 418.46 416.04 403.46 404.24 C 404.75 404.63 406.19 404.87 407.14 405.94 C 412.20 410.36 417.17 414.85 421.85 419.67 C 442.50 399.45 462.65 378.72 483.32 358.51 C 480.98 355.26 477.77 352.82 474.97 350.00 C 448.87 324.11 422.93 298.06 396.96 272.05 C 386.24 261.41 375.40 250.88 365.04 239.89 C 360.34 235.71 356.06 231.07 351.25 227.01 C 348.60 241.91 343.23 256.18 336.95 269.91 C 333.86 275.72 330.82 281.60 326.99 286.97 C 323.22 292.37 319.67 298.04 314.74 302.48 L 314.90 300.98 C 326.13 287.82 335.31 272.75 341.31 256.45 C 347.21 241.78 350.70 226.23 352.76 210.59 C 353.40 200.39 354.73 190.13 353.44 179.92 C 352.18 157.55 345.94 135.67 336.76 115.30 C 336.14 114.01 335.56 112.71 335.03 111.40 C 335.53 111.75 336.54 112.45 337.04 112.80 C 348.62 137.45 355.68 164.60 355.05 191.95 C 362.09 198.52 368.37 205.89 375.62 212.25 C 393.11 193.87 411.60 176.46 429.14 158.12 C 439.15 147.78 449.72 138.00 459.80 127.75 C 461.29 126.22 461.74 124.08 462.35 122.12 C 463.71 117.05 465.59 112.15 467.19 107.16 C 422.99 106.99 378.80 107.06 334.61 107.16 C 334.75 108.51 334.88 109.87 335.01 111.23 C 333.91 109.48 333.04 107.60 331.85 105.91 Z" />
<path fill="#fdfbf6" opacity="1.00" d=" M 772.87 105.95 C 777.24 106.16 781.80 105.46 785.96 107.25 C 795.83 110.33 802.57 119.96 803.94 129.96 C 804.25 134.30 804.30 138.65 804.26 143.00 C 804.14 316.68 804.23 490.36 804.19 664.04 C 804.09 672.04 804.60 680.08 803.80 688.06 C 802.55 693.33 800.63 698.72 796.88 702.75 C 797.57 699.33 799.73 696.53 801.12 693.39 C 788.92 682.46 777.69 670.52 766.07 658.99 C 756.52 649.17 746.41 639.91 736.86 630.08 C 727.13 620.41 717.49 610.66 707.71 601.04 C 696.97 612.20 685.91 623.05 674.84 633.87 C 648.80 659.97 622.53 685.83 596.52 711.96 C 656.35 712.15 716.19 712.00 776.03 712.02 C 782.27 712.19 787.42 708.29 793.19 706.65 C 788.24 710.94 781.57 713.31 775.03 713.06 C 659.37 713.07 543.70 713.02 428.03 713.07 C 427.09 713.21 425.21 713.51 424.27 713.65 C 424.65 712.63 425.06 711.62 425.48 710.63 C 425.98 710.15 426.97 709.18 427.47 708.70 C 429.81 705.85 431.83 702.74 434.11 699.83 C 433.16 704.72 428.97 707.84 426.56 711.97 C 468.36 712.15 510.16 711.97 551.96 712.07 C 553.41 711.90 555.21 712.35 556.38 711.23 C 593.08 674.68 629.63 637.95 666.32 601.38 C 673.32 594.35 680.47 587.46 687.26 580.23 C 669.92 563.76 653.66 546.15 636.12 529.88 C 634.67 531.23 633.60 533.61 631.31 533.55 C 634.55 530.01 637.10 525.91 640.33 522.36 C 645.00 517.52 649.71 512.65 655.36 508.94 C 659.59 514.86 665.49 519.28 670.35 524.66 C 681.99 535.97 693.54 547.40 705.01 558.90 C 705.85 559.56 706.53 560.71 707.67 560.90 C 739.56 529.43 771.07 497.49 802.90 466.01 C 803.13 390.21 803.00 314.39 802.95 238.58 C 774.61 266.34 746.82 294.64 718.69 322.62 C 712.77 328.85 706.30 334.57 700.61 341.02 C 708.23 343.30 716.52 344.47 723.23 348.96 L 721.85 349.11 C 713.22 345.02 703.90 342.73 694.53 341.14 C 698.64 334.05 704.14 327.70 708.87 320.96 C 720.43 306.15 731.95 291.32 743.28 276.34 C 765.58 248.09 782.39 214.33 785.59 178.10 C 787.60 153.54 783.85 128.15 772.87 105.95 M 775.06 107.12 C 779.01 115.08 781.31 123.69 783.66 132.22 C 786.00 140.96 787.07 150.00 787.23 159.03 C 788.23 165.67 787.23 172.31 786.95 178.96 C 785.55 194.62 781.34 209.93 775.41 224.46 C 774.67 226.02 774.12 227.66 773.82 229.36 C 776.59 227.30 778.92 224.73 781.37 222.31 C 788.48 215.07 795.87 208.12 802.98 200.89 C 803.04 178.59 803.02 156.29 803.02 133.99 C 802.68 127.23 800.55 120.22 795.78 115.25 C 790.73 109.39 782.66 106.73 775.06 107.12 M 798.19 510.07 C 774.30 534.07 750.29 557.94 726.43 581.95 C 748.31 603.62 769.86 625.65 791.95 647.10 C 795.51 650.76 798.88 654.65 802.90 657.83 C 803.17 607.11 802.90 556.38 803.05 505.65 C 801.15 506.81 799.70 508.49 798.19 510.07 Z" />
<path fill="#fdfbf6" opacity="1.00" d=" M 477.44 245.61 C 476.49 243.67 474.85 241.65 475.56 239.37 C 476.13 240.44 476.69 241.53 477.24 242.63 C 487.85 262.07 501.31 279.79 515.19 296.98 L 515.16 298.40 C 513.58 296.88 512.02 295.33 510.69 293.59 C 498.78 278.20 487.10 262.53 477.44 245.61 Z" />
<path fill="#fdfbf6" opacity="1.00" d=" M 297.52 318.99 C 302.42 314.28 307.08 309.33 312.00 304.66 C 311.10 308.65 307.12 310.69 304.66 313.64 C 302.42 315.55 300.80 318.91 297.52 318.99 Z" />
<path fill="#fdfbf6" opacity="1.00" d=" M 49.03 307.96 C 54.95 313.03 59.87 319.25 66.08 324.02 C 74.55 331.38 83.83 337.83 93.65 343.27 C 141.05 371.14 201.95 372.69 251.61 349.75 C 252.97 349.08 254.34 348.41 255.71 347.76 C 256.21 347.52 257.19 347.04 257.68 346.80 C 258.58 346.29 259.49 345.79 260.39 345.28 C 268.87 340.84 276.77 335.38 284.61 329.92 C 283.40 332.60 280.79 334.08 278.48 335.68 C 270.46 341.14 262.07 346.07 253.30 350.24 C 211.62 370.28 161.81 372.45 118.45 356.44 C 112.36 354.24 106.58 351.30 100.52 349.02 C 103.32 352.33 106.56 355.21 109.58 358.31 C 133.03 381.58 156.32 405.00 179.77 428.26 C 182.98 431.66 186.21 435.11 190.16 437.69 C 181.86 446.38 173.56 455.05 165.77 464.20 C 166.21 461.95 167.43 460.06 169.21 458.64 C 144.43 433.48 119.26 408.67 94.49 383.47 C 87.73 375.96 80.14 369.28 73.27 361.86 C 65.87 354.44 58.77 346.70 51.01 339.63 C 50.93 455.08 51.04 570.53 50.95 685.98 C 51.35 697.09 59.46 707.76 70.29 710.63 C 74.36 712.06 78.71 712.13 82.97 712.05 C 124.25 711.99 165.53 712.11 206.80 711.97 C 242.63 675.89 278.82 640.16 314.58 604.01 C 282.32 571.38 249.80 539.00 217.38 506.54 C 208.73 498.13 200.87 488.93 191.68 481.06 C 197.94 473.77 204.41 466.66 211.03 459.70 C 238.36 487.10 265.85 514.34 293.25 541.67 C 294.57 542.85 296.45 545.25 298.18 543.24 C 321.35 520.22 344.60 497.28 367.51 474.00 C 347.10 453.25 326.34 432.82 305.93 412.07 C 304.29 410.49 302.63 407.98 299.98 408.69 C 284.32 411.48 269.08 417.08 255.51 425.44 C 254.22 426.16 252.72 426.32 251.31 426.68 C 269.12 415.07 289.77 407.81 310.98 406.11 C 317.64 406.10 324.31 405.73 330.97 406.14 C 345.07 407.80 359.19 411.44 371.33 419.05 C 369.38 418.63 367.45 418.12 365.72 417.13 C 357.59 412.83 348.70 410.06 339.61 408.70 C 341.79 411.71 344.61 414.13 347.29 416.67 C 359.71 428.95 372.00 441.37 384.44 453.62 C 385.13 454.18 385.86 454.72 386.60 455.24 C 390.43 451.15 394.68 447.50 398.42 443.34 C 392.98 438.51 388.37 432.76 382.40 428.54 C 381.26 427.79 380.43 426.70 380.37 425.30 C 394.60 436.51 406.38 450.41 418.23 464.01 C 414.52 466.26 411.76 469.65 408.69 472.64 C 377.87 503.34 347.24 534.24 316.43 564.96 C 337.23 585.90 358.02 606.88 379.10 627.53 C 381.65 624.46 383.26 620.00 387.55 619.01 C 378.67 627.46 373.44 639.70 373.88 652.00 C 373.60 660.06 376.65 667.82 380.99 674.49 C 375.82 671.62 376.56 664.43 372.03 661.00 C 359.27 648.38 346.84 635.43 334.20 622.69 C 332.79 620.64 330.89 622.44 329.71 623.67 C 300.36 653.12 270.75 682.33 241.57 711.95 C 295.03 712.21 348.48 711.91 401.94 712.08 C 404.36 712.05 406.77 711.87 409.20 711.83 C 409.51 712.23 410.14 713.03 410.45 713.43 C 408.97 713.21 407.49 713.09 406.01 713.06 C 296.70 713.06 187.38 713.04 78.06 713.06 C 73.76 713.28 69.54 712.05 65.68 710.26 C 56.18 705.71 49.77 695.60 49.51 685.09 C 49.42 560.45 49.59 435.80 49.43 311.15 C 49.34 310.08 49.20 309.01 49.03 307.96 Z" />
<path fill="#fdfbf6" opacity="1.00" d=" M 289.41 326.00 C 291.56 324.02 293.55 321.80 296.08 320.29 C 294.61 322.86 292.67 325.75 289.41 326.00 Z" />
<path fill="#fdfbf6" opacity="1.00" d=" M 285.12 329.93 C 285.33 328.52 287.24 326.80 288.69 326.87 C 288.80 328.77 286.96 330.27 285.12 329.93 Z" />
<path fill="#fdfbf6" opacity="1.00" d=" M 548.99 341.33 C 558.11 353.24 566.00 366.09 573.59 379.01 C 571.30 378.17 570.34 375.80 569.12 373.91 C 564.55 365.95 559.43 358.34 554.33 350.72 C 552.38 347.70 549.50 345.06 548.99 341.33 Z" />
<path fill="#fdfbf6" opacity="1.00" d=" M 673.39 372.50 L 674.02 372.64 C 673.32 376.71 670.13 379.81 668.42 383.50 C 666.51 386.33 665.70 390.18 662.58 391.96 C 663.21 389.67 664.61 387.72 665.77 385.68 C 668.23 381.24 670.85 376.89 673.39 372.50 Z" />
<path fill="#fdfbf6" opacity="1.00" d=" M 661.21 393.67 L 662.38 393.99 C 658.91 401.22 654.74 408.08 651.27 415.31 C 648.66 420.37 645.66 425.51 640.84 428.78 C 633.20 435.02 622.40 436.63 613.05 433.99 C 609.50 432.25 604.47 431.48 602.97 427.33 C 608.29 431.04 614.44 434.00 621.06 434.05 C 631.39 434.26 641.94 429.00 647.25 420.01 C 648.54 417.95 649.50 415.71 650.77 413.65 C 651.27 412.56 651.78 411.48 652.29 410.40 C 655.34 404.86 658.27 399.26 661.21 393.67 Z" />
<path fill="#fdfbf6" opacity="1.00" d=" M 594.01 417.46 L 594.56 416.51 C 596.71 420.35 599.24 423.98 602.46 427.02 C 597.87 426.29 595.97 421.10 594.01 417.46 Z" />
<path fill="#fdfbf6" opacity="1.00" d=" M 135.16 506.31 C 141.86 504.89 149.30 508.73 152.01 515.03 C 155.32 522.18 152.58 531.59 145.40 535.20 C 137.00 540.13 124.72 534.72 123.11 525.00 C 121.10 516.78 126.82 507.85 135.16 506.31 Z" />
<path fill="#fdfbf6" opacity="1.00" d=" M 413.45 636.49 C 422.36 633.81 432.83 641.51 432.29 650.96 C 432.72 656.78 428.79 662.20 423.77 664.78 C 421.10 666.36 417.91 665.97 414.95 665.95 C 406.24 665.15 399.74 655.08 402.84 646.83 C 404.31 641.86 408.56 638.00 413.45 636.49 Z" />
</g>
<g id="#0d2940ff">
<path fill="#0d2940" opacity="1.00" d=" M 550.38 26.23 C 568.93 18.10 588.87 13.11 609.08 11.98 C 621.07 12.02 633.12 11.43 644.98 13.52 C 660.52 15.64 675.93 19.54 690.38 25.71 C 693.22 26.69 695.87 28.12 698.67 29.23 C 699.55 29.74 700.45 30.25 701.35 30.76 C 713.40 36.74 724.53 44.50 734.73 53.24 C 741.39 59.68 748.05 66.14 754.29 72.99 C 769.37 73.54 785.00 71.17 799.52 76.38 C 812.67 80.96 823.30 91.12 829.80 103.28 C 834.69 113.07 837.03 124.04 836.89 134.96 C 836.91 317.32 836.90 499.67 836.90 682.03 C 836.99 695.80 833.55 710.01 825.22 721.18 C 817.44 732.45 805.29 740.50 792.05 743.83 C 785.21 745.59 778.12 746.27 771.06 746.00 C 541.05 746.00 311.04 746.00 81.03 746.00 C 69.32 746.31 57.47 743.61 47.25 737.79 C 28.55 727.43 17.43 706.15 17.37 685.04 C 17.40 543.68 17.34 402.33 17.40 260.97 C 17.45 258.13 15.71 255.72 14.89 253.09 C -1.72 210.36 -1.09 161.06 18.25 119.32 C 26.00 100.71 39.55 85.56 51.68 69.75 C 60.50 60.38 70.58 52.27 81.33 45.21 C 88.83 40.60 96.46 36.13 104.59 32.69 C 129.33 21.24 156.73 15.56 183.95 15.99 C 203.55 16.91 223.16 20.42 241.45 27.68 C 243.15 28.27 244.83 28.93 246.45 29.73 C 250.64 31.26 254.52 33.48 258.60 35.27 C 277.07 45.06 294.31 57.47 308.40 72.97 C 368.66 73.03 428.91 73.00 489.17 72.98 C 503.31 55.96 520.73 41.68 540.27 31.20 C 542.94 29.88 545.62 28.55 548.29 27.21 C 548.81 26.97 549.86 26.47 550.38 26.23 M 561.32 56.42 C 533.28 69.60 509.59 92.71 497.31 121.31 C 488.57 141.19 486.35 163.59 489.74 184.97 C 490.15 190.34 492.28 195.39 492.65 200.76 C 492.83 200.40 493.20 199.67 493.38 199.31 C 493.26 203.36 495.23 207.00 496.49 210.74 C 501.21 223.74 508.11 235.80 515.72 247.30 C 527.66 265.11 541.23 281.72 554.26 298.72 C 567.99 316.47 580.84 334.93 592.56 354.06 C 599.58 365.40 606.71 376.72 612.53 388.74 C 615.39 393.28 617.04 398.55 620.65 402.61 C 621.49 402.54 622.35 402.47 623.21 402.42 C 638.48 371.98 656.74 343.16 676.55 315.52 C 697.34 285.76 722.53 258.94 739.45 226.60 C 749.66 207.39 756.07 185.81 755.31 163.93 C 754.52 152.80 753.10 141.54 749.04 131.06 C 744.77 118.03 737.88 106.02 729.73 95.06 C 712.93 74.77 690.91 58.39 665.69 50.34 C 651.95 45.55 637.43 43.50 622.97 42.66 C 601.78 42.85 580.44 47.10 561.32 56.42 M 119.67 60.76 C 116.46 62.05 113.39 63.64 110.33 65.22 C 82.68 80.33 60.28 104.68 47.25 133.34 C 40.97 147.64 36.63 162.93 35.74 178.55 C 34.20 187.64 35.33 196.84 36.03 205.94 C 37.79 220.55 41.65 234.95 47.76 248.35 C 49.35 252.22 51.39 255.90 53.27 259.63 C 60.53 272.26 69.24 284.14 79.80 294.22 C 90.16 303.44 101.29 311.96 113.72 318.21 C 114.63 318.69 115.54 319.19 116.44 319.69 C 132.30 327.23 149.53 332.07 167.05 333.26 C 174.64 334.41 182.45 334.29 190.04 333.24 C 207.13 332.27 223.89 327.47 239.37 320.25 C 241.37 319.27 243.40 318.34 245.35 317.25 C 249.39 314.98 253.58 312.95 257.35 310.23 C 268.93 302.78 278.94 293.20 288.07 282.95 C 305.77 262.13 317.43 236.20 320.92 209.07 C 324.16 184.66 320.71 159.40 311.27 136.63 C 309.74 132.93 308.00 129.31 306.21 125.73 C 295.05 104.32 278.36 86.00 258.55 72.30 C 253.28 68.89 247.93 65.56 242.30 62.78 C 239.17 61.09 235.87 59.77 232.66 58.26 C 223.06 54.43 213.08 51.51 202.87 49.82 C 191.71 47.51 180.28 47.97 168.94 48.03 C 151.99 49.61 135.15 53.56 119.67 60.76 M 331.85 105.91 C 333.04 107.60 333.91 109.48 335.01 111.23 L 335.03 111.40 C 335.56 112.71 336.14 114.01 336.76 115.30 C 345.94 135.67 352.18 157.55 353.44 179.92 C 354.73 190.13 353.40 200.39 352.76 210.59 C 350.70 226.23 347.21 241.78 341.31 256.45 C 335.31 272.75 326.13 287.82 314.90 300.98 C 313.89 301.97 312.98 303.04 312.15 304.18 L 312.00 304.66 C 307.08 309.33 302.42 314.28 297.52 318.99 L 296.99 319.07 C 296.76 319.37 296.31 319.99 296.08 320.29 C 293.55 321.80 291.56 324.02 289.41 326.00 L 288.76 326.14 L 288.69 326.87 C 287.24 326.80 285.33 328.52 285.12 329.93 L 284.61 329.92 C 276.77 335.38 268.87 340.84 260.39 345.28 C 259.49 345.79 258.58 346.29 257.68 346.80 C 257.19 347.04 256.21 347.52 255.71 347.76 C 254.34 348.41 252.97 349.08 251.61 349.75 C 201.95 372.69 141.05 371.14 93.65 343.27 C 83.83 337.83 74.55 331.38 66.08 324.02 C 59.87 319.25 54.95 313.03 49.03 307.96 C 49.20 309.01 49.34 310.08 49.43 311.15 C 49.59 435.80 49.42 560.45 49.51 685.09 C 49.77 695.60 56.18 705.71 65.68 710.26 C 69.54 712.05 73.76 713.28 78.06 713.06 C 187.38 713.04 296.70 713.06 406.01 713.06 C 407.49 713.09 408.97 713.21 410.45 713.43 C 410.14 713.03 409.51 712.23 409.20 711.83 C 408.55 710.87 407.92 709.91 407.22 709.00 C 408.53 710.29 409.90 711.57 410.63 713.31 C 414.80 714.74 419.31 714.17 423.61 713.80 C 424.32 711.93 425.01 709.90 426.62 708.60 L 427.47 708.70 C 426.97 709.18 425.98 710.15 425.48 710.63 C 425.06 711.62 424.65 712.63 424.27 713.65 C 425.21 713.51 427.09 713.21 428.03 713.07 C 543.70 713.02 659.37 713.07 775.03 713.06 C 781.57 713.31 788.24 710.94 793.19 706.65 C 794.75 705.81 796.21 704.43 796.88 702.75 C 800.63 698.72 802.55 693.33 803.80 688.06 C 804.60 680.08 804.09 672.04 804.19 664.04 C 804.23 490.36 804.14 316.68 804.26 143.00 C 804.30 138.65 804.25 134.30 803.94 129.96 C 802.57 119.96 795.83 110.33 785.96 107.25 C 781.80 105.46 777.24 106.16 772.87 105.95 C 783.85 128.15 787.60 153.54 785.59 178.10 C 782.39 214.33 765.58 248.09 743.28 276.34 C 731.95 291.32 720.43 306.15 708.87 320.96 C 704.14 327.70 698.64 334.05 694.53 341.14 C 690.36 346.25 687.07 351.98 683.24 357.33 C 681.07 361.00 678.13 364.24 676.40 368.14 C 675.40 368.89 674.84 370.25 674.09 371.28 C 674.08 371.62 674.04 372.30 674.02 372.64 L 673.39 372.50 C 670.85 376.89 668.23 381.24 665.77 385.68 C 664.61 387.72 663.21 389.67 662.58 391.96 C 661.88 392.33 661.43 392.90 661.21 393.67 C 658.27 399.26 655.34 404.86 652.29 410.40 C 651.78 411.48 651.27 412.56 650.77 413.65 C 649.50 415.71 648.54 417.95 647.25 420.01 C 641.94 429.00 631.39 434.26 621.06 434.05 C 614.44 434.00 608.29 431.04 602.97 427.33 L 602.86 427.10 L 602.46 427.02 C 599.24 423.98 596.71 420.35 594.56 416.51 C 592.86 412.82 590.64 409.02 588.78 405.27 C 588.27 404.40 587.76 403.54 587.24 402.69 C 586.99 402.18 586.48 401.17 586.23 400.67 C 582.27 393.39 578.08 386.24 573.83 379.14 L 573.59 379.01 C 566.00 366.09 558.11 353.24 548.99 341.33 C 544.84 334.36 539.55 327.99 534.70 321.44 C 528.20 313.27 521.88 304.99 515.19 296.98 C 501.31 279.79 487.85 262.07 477.24 242.63 C 476.69 241.53 476.13 240.44 475.56 239.37 C 474.74 237.81 474.36 235.93 472.98 234.76 C 472.95 234.42 472.89 233.75 472.86 233.41 C 471.31 231.00 470.52 228.21 469.24 225.67 C 468.63 223.93 468.00 222.21 467.24 220.55 C 453.42 183.90 454.68 142.25 469.15 106.01 C 423.38 105.93 377.61 106.13 331.85 105.91 Z" />
<path fill="#0d2940" opacity="1.00" d=" M 175.18 77.07 C 175.68 75.44 176.90 73.62 178.82 73.68 C 180.96 74.63 182.38 76.74 182.85 78.99 C 187.97 97.65 194.04 116.11 199.00 134.77 C 185.01 143.84 171.33 153.37 157.43 162.57 C 155.79 163.73 153.40 165.21 154.25 167.59 C 164.36 178.22 175.12 188.22 186.30 197.71 C 189.36 200.20 191.74 203.43 194.96 205.73 C 197.18 207.24 198.42 210.02 201.14 210.76 C 210.33 196.72 219.27 182.50 227.52 167.90 C 228.58 167.94 229.62 168.13 230.63 168.46 C 253.08 175.51 275.90 181.44 298.15 189.14 C 298.18 191.00 297.30 192.58 296.07 193.92 C 276.06 199.70 256.11 205.81 236.07 211.51 C 233.55 212.20 231.09 213.32 228.42 213.07 C 229.27 214.97 230.26 216.80 231.28 218.61 C 237.56 229.64 243.93 240.63 250.24 251.64 C 253.37 256.61 256.28 261.72 259.29 266.77 C 260.36 268.71 260.87 272.35 257.92 272.80 C 256.43 272.55 254.99 271.99 253.70 271.24 C 238.68 261.56 223.57 252.00 208.60 242.26 C 206.01 240.96 203.89 238.78 201.16 237.80 C 201.03 238.60 200.76 240.19 200.63 240.99 C 194.35 262.23 188.20 283.52 182.10 304.81 C 181.59 306.65 179.79 307.62 178.57 308.95 C 175.09 306.96 174.65 302.80 173.46 299.36 C 168.47 281.93 163.28 264.56 158.16 247.17 C 157.47 245.15 156.87 243.09 156.82 240.94 C 142.72 250.10 128.63 259.28 114.42 268.28 C 109.23 271.55 104.01 274.79 98.98 278.31 C 96.73 279.87 93.16 279.08 92.13 276.42 C 92.85 269.57 96.79 263.77 99.88 257.81 C 107.60 243.89 115.18 229.90 123.24 216.18 C 126.18 212.29 128.37 207.94 130.85 203.77 C 135.01 197.85 138.03 191.23 142.14 185.28 C 144.83 180.36 148.44 176.00 151.00 171.00 C 146.55 176.98 142.91 183.51 138.79 189.71 C 134.51 197.76 129.24 205.22 124.88 213.22 C 123.52 213.07 122.18 212.81 120.90 212.35 C 101.74 206.38 82.46 200.81 63.31 194.81 C 61.87 194.12 60.43 193.43 58.99 192.74 C 59.31 191.29 58.15 188.84 59.96 188.16 C 78.24 182.08 96.86 177.06 115.29 171.45 C 119.90 170.21 124.39 168.28 129.18 167.86 C 128.93 166.62 128.17 165.60 127.56 164.53 C 119.09 149.75 110.42 135.08 101.63 120.48 C 100.07 117.76 97.57 115.28 97.91 111.88 C 98.66 111.25 99.41 110.60 100.15 109.95 C 102.12 109.78 104.07 110.12 105.44 111.66 C 118.08 120.00 130.93 128.03 143.65 136.24 C 147.70 138.89 151.73 141.59 155.83 144.15 C 155.92 143.59 156.08 142.46 156.17 141.90 C 162.53 120.30 168.81 98.67 175.18 77.07 Z" />
<path fill="#0d2940" opacity="1.00" d=" M 581.86 151.65 C 590.05 149.49 599.49 151.30 605.48 157.57 C 613.39 164.72 615.27 177.14 610.79 186.63 C 607.15 193.83 600.03 199.34 591.93 200.26 C 586.19 201.28 580.22 199.85 575.27 196.86 C 571.24 194.48 568.36 190.79 566.18 186.72 C 563.73 181.80 563.59 176.28 564.15 170.92 C 566.07 161.98 572.96 154.10 581.86 151.65 Z" />
<path fill="#0d2940" opacity="1.00" d=" M 646.31 152.20 C 652.59 150.26 659.84 150.06 665.81 153.13 C 672.60 156.29 677.87 162.74 679.39 170.11 C 680.94 175.30 679.52 180.70 677.82 185.66 C 675.24 190.82 671.21 195.41 665.94 197.91 C 656.85 202.55 644.77 200.92 637.68 193.43 C 632.77 189.02 630.35 182.44 629.95 175.98 C 629.84 165.63 636.60 155.81 646.31 152.20 Z" />
<path fill="#0d2940" opacity="1.00" d=" M 608.71 211.59 C 612.92 206.35 616.76 200.41 621.66 195.98 C 626.69 201.54 631.59 207.28 635.94 213.38 C 636.09 217.71 636.81 223.02 632.96 226.07 C 629.24 226.33 625.47 225.38 622.57 222.99 C 621.46 222.84 620.50 223.10 619.68 223.76 C 616.69 225.17 613.51 226.40 610.14 226.03 C 609.46 225.27 608.79 224.51 608.12 223.76 C 607.42 219.82 605.41 214.86 608.71 211.59 Z" />
</g>
<g id="#da322aff">
<path fill="#da322a" opacity="1.00" d=" M 561.32 56.42 C 580.44 47.10 601.78 42.85 622.97 42.66 C 637.43 43.50 651.95 45.55 665.69 50.34 C 690.91 58.39 712.93 74.77 729.73 95.06 C 737.88 106.02 744.77 118.03 749.04 131.06 C 753.10 141.54 754.52 152.80 755.31 163.93 C 756.07 185.81 749.66 207.39 739.45 226.60 C 722.53 258.94 697.34 285.76 676.55 315.52 C 656.74 343.16 638.48 371.98 623.21 402.42 C 622.35 402.47 621.49 402.54 620.65 402.61 C 617.04 398.55 615.39 393.28 612.53 388.74 C 606.71 376.72 599.58 365.40 592.56 354.06 C 580.84 334.93 567.99 316.47 554.26 298.72 C 541.23 281.72 527.66 265.11 515.72 247.30 C 508.11 235.80 501.21 223.74 496.49 210.74 C 495.23 207.00 493.26 203.36 493.38 199.31 C 493.20 199.67 492.83 200.40 492.65 200.76 C 492.28 195.39 490.15 190.34 489.74 184.97 C 486.35 163.59 488.57 141.19 497.31 121.31 C 509.59 92.71 533.28 69.60 561.32 56.42 M 580.04 95.99 C 565.97 104.41 554.93 117.59 548.45 132.60 C 539.52 153.36 540.01 177.64 548.66 198.40 C 552.75 208.13 559.79 216.37 568.05 222.81 C 571.42 225.58 575.74 227.15 578.72 230.34 C 583.14 238.80 579.00 249.06 583.35 257.59 C 584.22 259.91 586.33 261.73 588.88 261.82 C 593.92 261.93 600.06 262.91 603.94 258.89 C 604.00 255.97 603.21 252.40 605.91 250.37 C 610.31 253.30 611.23 259.51 616.04 261.85 C 620.30 262.04 624.58 261.93 628.84 261.86 C 632.79 258.87 632.54 252.01 637.84 250.28 C 639.78 253.10 639.22 256.63 640.24 259.70 C 642.81 262.05 646.70 261.91 649.98 261.97 C 653.01 261.84 656.86 262.71 658.81 259.69 C 663.78 251.76 661.87 241.89 663.16 233.07 C 664.96 229.09 669.38 227.43 672.50 224.67 C 684.80 216.00 693.55 202.74 697.39 188.26 C 701.94 171.54 701.82 153.39 695.86 137.03 C 690.43 122.58 681.07 109.41 668.49 100.34 C 655.75 90.73 640.00 85.46 624.12 84.61 C 608.76 84.03 593.15 87.90 580.04 95.99 Z" />
<path fill="#da322a" opacity="1.00" d=" M 250.01 102.05 C 252.80 100.70 255.57 98.93 258.77 98.85 C 260.59 100.66 261.81 103.20 260.86 105.78 C 250.89 127.08 238.60 147.19 227.52 167.90 C 219.27 182.50 210.33 196.72 201.14 210.76 C 198.42 210.02 197.18 207.24 194.96 205.73 C 191.74 203.43 189.36 200.20 186.30 197.71 C 175.12 188.22 164.36 178.22 154.25 167.59 C 153.40 165.21 155.79 163.73 157.43 162.57 C 171.33 153.37 185.01 143.84 199.00 134.77 C 210.95 126.42 223.26 118.59 235.51 110.70 C 240.18 107.55 245.11 104.82 250.01 102.05 Z" />
<path fill="#da322a" opacity="1.00" d=" M 694.53 341.14 C 703.90 342.73 713.22 345.02 721.85 349.11 C 741.18 358.88 756.23 377.40 760.26 398.86 C 763.77 415.98 760.26 434.32 750.89 449.04 C 741.80 463.40 728.27 474.63 713.11 482.12 C 694.08 491.52 673.22 497.25 655.36 508.94 C 649.71 512.65 645.00 517.52 640.33 522.36 C 637.10 525.91 634.55 530.01 631.31 533.55 C 618.78 548.41 602.22 560.39 583.21 565.24 C 572.69 567.71 561.68 568.91 550.97 567.01 C 531.97 564.93 514.42 556.10 499.04 545.12 C 467.28 523.35 442.79 493.21 418.23 464.01 C 406.38 450.41 394.60 436.51 380.37 425.30 C 377.54 422.97 374.55 420.80 371.33 419.05 C 359.19 411.44 345.07 407.80 330.97 406.14 C 324.31 405.73 317.64 406.10 310.98 406.11 C 289.77 407.81 269.12 415.07 251.31 426.68 C 236.47 435.81 223.50 447.61 211.03 459.70 C 204.41 466.66 197.94 473.77 191.68 481.06 C 186.30 487.34 180.71 493.48 175.85 500.18 C 177.62 504.44 180.00 508.51 180.70 513.16 C 184.76 531.56 175.44 551.85 158.94 560.89 C 147.62 567.37 133.29 567.83 121.41 562.62 C 111.47 558.29 103.01 550.46 98.20 540.71 C 92.39 528.78 92.39 514.15 98.39 502.29 C 104.24 490.16 115.88 480.92 129.15 478.38 C 136.76 477.42 144.79 477.47 151.91 480.68 C 156.50 475.15 161.11 469.65 165.77 464.20 C 173.56 455.05 181.86 446.38 190.16 437.69 C 202.77 425.02 216.10 412.98 230.81 402.78 C 252.53 388.04 277.97 378.87 304.04 376.02 C 329.89 373.18 356.66 377.38 379.98 389.08 C 388.35 393.23 395.93 398.75 403.46 404.24 C 418.46 416.04 430.03 431.32 442.70 445.43 C 457.51 463.17 472.00 481.28 488.78 497.24 C 501.55 509.31 514.84 521.27 530.54 529.42 C 544.42 536.73 561.02 539.61 576.27 535.22 C 589.79 531.55 600.98 522.34 609.58 511.55 C 619.06 499.17 630.24 487.79 643.80 479.91 C 662.35 469.59 682.99 463.75 701.56 453.48 C 711.01 448.12 720.29 441.36 725.61 431.64 C 731.48 421.42 732.33 408.60 728.30 397.58 C 724.16 386.38 714.69 377.33 703.33 373.68 C 694.68 370.44 685.37 370.00 676.40 368.14 C 678.13 364.24 681.07 361.00 683.24 357.33 C 687.07 351.98 690.36 346.25 694.53 341.14 M 135.16 506.31 C 126.82 507.85 121.10 516.78 123.11 525.00 C 124.72 534.72 137.00 540.13 145.40 535.20 C 152.58 531.59 155.32 522.18 152.01 515.03 C 149.30 508.73 141.86 504.89 135.16 506.31 Z" />
<path fill="#da322a" opacity="1.00" d=" M 396.07 613.14 C 406.33 607.38 418.96 606.46 430.15 609.84 C 442.90 613.39 453.53 623.51 457.99 635.93 C 460.70 642.61 460.37 649.98 459.95 657.04 C 459.11 663.91 456.09 670.38 452.07 675.96 C 446.10 683.93 439.91 691.74 434.11 699.83 C 431.83 702.74 429.81 705.85 427.47 708.70 L 426.62 708.60 C 425.01 709.90 424.32 711.93 423.61 713.80 C 419.31 714.17 414.80 714.74 410.63 713.31 C 409.90 711.57 408.53 710.29 407.22 709.00 C 398.42 697.54 390.10 685.70 380.99 674.49 C 376.65 667.82 373.60 660.06 373.88 652.00 C 373.44 639.70 378.67 627.46 387.55 619.01 C 390.38 617.04 393.00 614.75 396.07 613.14 M 413.45 636.49 C 408.56 638.00 404.31 641.86 402.84 646.83 C 399.74 655.08 406.24 665.15 414.95 665.95 C 417.91 665.97 421.10 666.36 423.77 664.78 C 428.79 662.20 432.72 656.78 432.29 650.96 C 432.83 641.51 422.36 633.81 413.45 636.49 Z" />
</g>
<g id="#e1d8cfff">
<path fill="#e1d8cf" opacity="1.00" d=" M 334.61 107.16 C 378.80 107.06 422.99 106.99 467.19 107.16 C 465.59 112.15 463.71 117.05 462.35 122.12 C 461.74 124.08 461.29 126.22 459.80 127.75 C 449.72 138.00 439.15 147.78 429.14 158.12 C 411.60 176.46 393.11 193.87 375.62 212.25 C 368.37 205.89 362.09 198.52 355.05 191.95 C 355.68 164.60 348.62 137.45 337.04 112.80 C 336.54 112.45 335.53 111.75 335.03 111.40 L 335.01 111.23 C 334.88 109.87 334.75 108.51 334.61 107.16 Z" />
<path fill="#e1d8cf" opacity="1.00" d=" M 775.06 107.12 C 782.66 106.73 790.73 109.39 795.78 115.25 C 800.55 120.22 802.68 127.23 803.02 133.99 C 803.02 156.29 803.04 178.59 802.98 200.89 C 795.87 208.12 788.48 215.07 781.37 222.31 C 778.92 224.73 776.59 227.30 773.82 229.36 C 774.12 227.66 774.67 226.02 775.41 224.46 C 781.34 209.93 785.55 194.62 786.95 178.96 C 787.23 172.31 788.23 165.67 787.23 159.03 C 787.07 150.00 786.00 140.96 783.66 132.22 C 781.31 123.69 779.01 115.08 775.06 107.12 Z" />
<path fill="#e1d8cf" opacity="1.00" d=" M 405.58 220.59 C 422.39 203.94 439.02 187.11 455.93 170.57 C 457.06 193.42 462.39 216.26 473.06 236.58 L 472.98 234.76 C 474.36 235.93 474.74 237.81 475.56 239.37 C 474.85 241.65 476.49 243.67 477.44 245.61 C 487.10 262.53 498.78 278.20 510.69 293.59 C 512.02 295.33 513.58 296.88 515.16 298.40 L 515.19 296.98 C 521.88 304.99 528.20 313.27 534.70 321.44 C 539.55 327.99 544.84 334.36 548.99 341.33 C 549.50 345.06 552.38 347.70 554.33 350.72 C 559.43 358.34 564.55 365.95 569.12 373.91 C 570.34 375.80 571.30 378.17 573.59 379.01 L 573.83 379.14 C 578.08 386.24 582.27 393.39 586.23 400.67 C 586.48 401.17 586.99 402.18 587.24 402.69 C 587.76 403.54 588.27 404.40 588.78 405.27 C 590.64 409.02 592.86 412.82 594.56 416.51 L 594.01 417.46 C 595.97 421.10 597.87 426.29 602.46 427.02 L 602.86 427.10 L 602.97 427.33 C 604.47 431.48 609.50 432.25 613.05 433.99 C 622.40 436.63 633.20 435.02 640.84 428.78 C 645.66 425.51 648.66 420.37 651.27 415.31 C 654.74 408.08 658.91 401.22 662.38 393.99 L 661.21 393.67 C 661.43 392.90 661.88 392.33 662.58 391.96 C 665.70 390.18 666.51 386.33 668.42 383.50 C 670.13 379.81 673.32 376.71 674.02 372.64 C 674.04 372.30 674.08 371.62 674.09 371.28 C 674.84 370.25 675.40 368.89 676.40 368.14 C 685.37 370.00 694.68 370.44 703.33 373.68 C 714.69 377.33 724.16 386.38 728.30 397.58 C 732.33 408.60 731.48 421.42 725.61 431.64 C 720.29 441.36 711.01 448.12 701.56 453.48 C 682.99 463.75 662.35 469.59 643.80 479.91 C 630.24 487.79 619.06 499.17 609.58 511.55 C 600.98 522.34 589.79 531.55 576.27 535.22 C 561.02 539.61 544.42 536.73 530.54 529.42 C 514.84 521.27 501.55 509.31 488.78 497.24 C 472.00 481.28 457.51 463.17 442.70 445.43 C 442.54 443.80 441.60 442.43 440.96 440.98 C 442.72 438.15 445.51 436.18 447.75 433.77 C 468.99 412.31 490.45 391.07 511.71 369.63 C 518.10 363.73 516.89 352.87 510.77 347.22 C 471.81 308.95 433.67 269.84 394.44 231.86 C 397.99 227.94 401.70 224.18 405.58 220.59 Z" />
<path fill="#e1d8cf" opacity="1.00" d=" M 351.25 227.01 C 356.06 231.07 360.34 235.71 365.04 239.89 C 375.40 250.88 386.24 261.41 396.96 272.05 C 422.93 298.06 448.87 324.11 474.97 350.00 C 477.77 352.82 480.98 355.26 483.32 358.51 C 462.65 378.72 442.50 399.45 421.85 419.67 C 417.17 414.85 412.20 410.36 407.14 405.94 C 406.19 404.87 404.75 404.63 403.46 404.24 C 395.93 398.75 388.35 393.23 379.98 389.08 C 356.66 377.38 329.89 373.18 304.04 376.02 C 277.97 378.87 252.53 388.04 230.81 402.78 C 216.10 412.98 202.77 425.02 190.16 437.69 C 186.21 435.11 182.98 431.66 179.77 428.26 C 156.32 405.00 133.03 381.58 109.58 358.31 C 106.56 355.21 103.32 352.33 100.52 349.02 C 106.58 351.30 112.36 354.24 118.45 356.44 C 161.81 372.45 211.62 370.28 253.30 350.24 C 262.07 346.07 270.46 341.14 278.48 335.68 C 280.79 334.08 283.40 332.60 284.61 329.92 L 285.12 329.93 C 286.96 330.27 288.80 328.77 288.69 326.87 L 288.76 326.14 L 289.41 326.00 C 292.67 325.75 294.61 322.86 296.08 320.29 C 296.31 319.99 296.76 319.37 296.99 319.07 L 297.52 318.99 C 300.80 318.91 302.42 315.55 304.66 313.64 C 307.12 310.69 311.10 308.65 312.00 304.66 L 312.15 304.18 C 312.98 303.04 313.89 301.97 314.90 300.98 L 314.74 302.48 C 319.67 298.04 323.22 292.37 326.99 286.97 C 330.82 281.60 333.86 275.72 336.95 269.91 C 343.23 256.18 348.60 241.91 351.25 227.01 Z" />
<path fill="#e1d8cf" opacity="1.00" d=" M 718.69 322.62 C 746.82 294.64 774.61 266.34 802.95 238.58 C 803.00 314.39 803.13 390.21 802.90 466.01 C 771.07 497.49 739.56 529.43 707.67 560.90 C 706.53 560.71 705.85 559.56 705.01 558.90 C 693.54 547.40 681.99 535.97 670.35 524.66 C 665.49 519.28 659.59 514.86 655.36 508.94 C 673.22 497.25 694.08 491.52 713.11 482.12 C 728.27 474.63 741.80 463.40 750.89 449.04 C 760.26 434.32 763.77 415.98 760.26 398.86 C 756.23 377.40 741.18 358.88 721.85 349.11 L 723.23 348.96 C 716.52 344.47 708.23 343.30 700.61 341.02 C 706.30 334.57 712.77 328.85 718.69 322.62 Z" />
<path fill="#e1d8cf" opacity="1.00" d=" M 51.01 339.63 C 58.77 346.70 65.87 354.44 73.27 361.86 C 80.14 369.28 87.73 375.96 94.49 383.47 C 119.26 408.67 144.43 433.48 169.21 458.64 C 167.43 460.06 166.21 461.95 165.77 464.20 C 161.11 469.65 156.50 475.15 151.91 480.68 C 144.79 477.47 136.76 477.42 129.15 478.38 C 115.88 480.92 104.24 490.16 98.39 502.29 C 92.39 514.15 92.39 528.78 98.20 540.71 C 103.01 550.46 111.47 558.29 121.41 562.62 C 133.29 567.83 147.62 567.37 158.94 560.89 C 175.44 551.85 184.76 531.56 180.70 513.16 C 180.00 508.51 177.62 504.44 175.85 500.18 C 180.71 493.48 186.30 487.34 191.68 481.06 C 200.87 488.93 208.73 498.13 217.38 506.54 C 249.80 539.00 282.32 571.38 314.58 604.01 C 278.82 640.16 242.63 675.89 206.80 711.97 C 165.53 712.11 124.25 711.99 82.97 712.05 C 78.71 712.13 74.36 712.06 70.29 710.63 C 59.46 707.76 51.35 697.09 50.95 685.98 C 51.04 570.53 50.93 455.08 51.01 339.63 Z" />
<path fill="#e1d8cf" opacity="1.00" d=" M 255.51 425.44 C 269.08 417.08 284.32 411.48 299.98 408.69 C 302.63 407.98 304.29 410.49 305.93 412.07 C 326.34 432.82 347.10 453.25 367.51 474.00 C 344.60 497.28 321.35 520.22 298.18 543.24 C 296.45 545.25 294.57 542.85 293.25 541.67 C 265.85 514.34 238.36 487.10 211.03 459.70 C 223.50 447.61 236.47 435.81 251.31 426.68 C 252.72 426.32 254.22 426.16 255.51 425.44 Z" />
<path fill="#e1d8cf" opacity="1.00" d=" M 339.61 408.70 C 348.70 410.06 357.59 412.83 365.72 417.13 C 367.45 418.12 369.38 418.63 371.33 419.05 C 374.55 420.80 377.54 422.97 380.37 425.30 C 380.43 426.70 381.26 427.79 382.40 428.54 C 388.37 432.76 392.98 438.51 398.42 443.34 C 394.68 447.50 390.43 451.15 386.60 455.24 C 385.86 454.72 385.13 454.18 384.44 453.62 C 372.00 441.37 359.71 428.95 347.29 416.67 C 344.61 414.13 341.79 411.71 339.61 408.70 Z" />
<path fill="#e1d8cf" opacity="1.00" d=" M 418.23 464.01 C 442.79 493.21 467.28 523.35 499.04 545.12 C 514.42 556.10 531.97 564.93 550.97 567.01 C 561.68 568.91 572.69 567.71 583.21 565.24 C 602.22 560.39 618.78 548.41 631.31 533.55 C 633.60 533.61 634.67 531.23 636.12 529.88 C 653.66 546.15 669.92 563.76 687.26 580.23 C 680.47 587.46 673.32 594.35 666.32 601.38 C 629.63 637.95 593.08 674.68 556.38 711.23 C 555.21 712.35 553.41 711.90 551.96 712.07 C 510.16 711.97 468.36 712.15 426.56 711.97 C 428.97 707.84 433.16 704.72 434.11 699.83 C 439.91 691.74 446.10 683.93 452.07 675.96 C 456.09 670.38 459.11 663.91 459.95 657.04 C 460.37 649.98 460.70 642.61 457.99 635.93 C 453.53 623.51 442.90 613.39 430.15 609.84 C 418.96 606.46 406.33 607.38 396.07 613.14 C 393.00 614.75 390.38 617.04 387.55 619.01 C 383.26 620.00 381.65 624.46 379.10 627.53 C 358.02 606.88 337.23 585.90 316.43 564.96 C 347.24 534.24 377.87 503.34 408.69 472.64 C 411.76 469.65 414.52 466.26 418.23 464.01 Z" />
<path fill="#e1d8cf" opacity="1.00" d=" M 798.19 510.07 C 799.70 508.49 801.15 506.81 803.05 505.65 C 802.90 556.38 803.17 607.11 802.90 657.83 C 798.88 654.65 795.51 650.76 791.95 647.10 C 769.86 625.65 748.31 603.62 726.43 581.95 C 750.29 557.94 774.30 534.07 798.19 510.07 Z" />
<path fill="#e1d8cf" opacity="1.00" d=" M 674.84 633.87 C 685.91 623.05 696.97 612.20 707.71 601.04 C 717.49 610.66 727.13 620.41 736.86 630.08 C 746.41 639.91 756.52 649.17 766.07 658.99 C 777.69 670.52 788.92 682.46 801.12 693.39 C 799.73 696.53 797.57 699.33 796.88 702.75 C 796.21 704.43 794.75 705.81 793.19 706.65 C 787.42 708.29 782.27 712.19 776.03 712.02 C 716.19 712.00 656.35 712.15 596.52 711.96 C 622.53 685.83 648.80 659.97 674.84 633.87 Z" />
<path fill="#e1d8cf" opacity="1.00" d=" M 329.71 623.67 C 330.89 622.44 332.79 620.64 334.20 622.69 C 346.84 635.43 359.27 648.38 372.03 661.00 C 376.56 664.43 375.82 671.62 380.99 674.49 C 390.10 685.70 398.42 697.54 407.22 709.00 C 407.92 709.91 408.55 710.87 409.20 711.83 C 406.77 711.87 404.36 712.05 401.94 712.08 C 348.48 711.91 295.03 712.21 241.57 711.95 C 270.75 682.33 300.36 653.12 329.71 623.67 Z" />
</g>
</svg>
